<svg width="1051" height="212" viewBox="0 0 1051 212" fill="none" xmlns="http://www.w3.org/2000/svg">
<g clip-path="url(#clip0_502_37)">
<path d="M282.1 96.1002C291.8 98.3002 298.6 101 302.5 104.3C305.196 106.38 307.362 109.067 308.822 112.143C310.282 115.219 310.994 118.597 310.9 122C310.9 129.7 307.8 136 301.6 141C295.4 146 283.1 150.1 268.6 150.1H216.8V147.3C221.5 147.3 224.7 146.9 226.4 146C227.927 145.309 229.164 144.106 229.9 142.6C230.6 141.2 231 137.7 231 132.2V66.1002C231 60.5002 230.6 57.1002 229.9 55.6002C229.164 54.094 227.927 52.8916 226.4 52.2002C224.7 51.4002 221.5 50.9002 216.8 50.9002V48.2002H265.7C277.4 48.2002 285.6 49.2002 290.5 51.3002C295.156 53.2165 299.152 56.4483 302 60.6002C304.723 64.4641 306.19 69.0731 306.2 73.8002C306.193 78.6879 304.294 83.3831 300.9 86.9002C297.3 90.8002 291.1 93.8002 282.1 96.1002ZM254.7 99.9002V136.4C254.7 139.1 255.4 141.1 256.8 142.5C258.2 143.9 260.2 144.6 262.9 144.6C266.766 144.631 270.58 143.703 274 141.9C277.34 140.164 280.064 137.441 281.8 134.1C283.64 130.622 284.568 126.734 284.5 122.8C284.558 118.316 283.419 113.897 281.2 110C279.197 106.373 275.973 103.573 272.1 102.1C268.1 100.6 262.4 99.8002 254.7 99.9002ZM254.7 94.0002C261.8 94.0002 267.1 93.2002 270.5 91.6002C273.675 90.1816 276.356 87.849 278.2 84.9002C280.187 81.5122 281.159 77.6247 281 73.7002C281.159 69.8202 280.223 65.9737 278.3 62.6002C276.49 59.7081 273.838 57.4397 270.7 56.1002C267.3 54.5002 262 53.8002 254.7 53.9002V94.0002Z" fill="#38B6FF"/>
<path d="M372.7 147.3V150.1H319.4V147.3H322.8C325.255 147.401 327.696 146.886 329.9 145.8C331.319 144.976 332.387 143.659 332.9 142.1C333.5 140.9 333.7 137.8 333.7 132.7V65.6002C333.7 60.4002 333.5 57.1002 332.9 55.8002C332.19 54.3442 331.034 53.1529 329.6 52.4002C327.505 51.3097 325.159 50.7922 322.8 50.9002H319.4V48.2002H372.7V50.9002H369.3C366.836 50.8256 364.394 51.3761 362.2 52.5002C360.779 53.3021 359.682 54.5755 359.1 56.1002C358.5 57.3002 358.3 60.5002 358.3 65.6002V132.7C358.3 137.9 358.5 141.1 359.1 142.5C359.852 143.959 361.041 145.148 362.5 145.9C364.621 146.907 366.954 147.387 369.3 147.3H372.7Z" fill="#38B6FF"/>
<path d="M482.5 45.8V81.8H479.7C476.3 71.9 471.3 64.5 464.6 59.4C458.358 54.4023 450.596 51.6857 442.6 51.7C434.9 51.7 428.6 53.8 423.5 58.1C418.4 62.4 414.9 68.4 412.8 76.1C410.674 83.7863 409.597 91.725 409.6 99.7C409.473 108.394 410.653 117.057 413.1 125.4C415.433 132.8 419.133 138.2 424.2 141.6C429.663 145.162 436.081 146.976 442.6 146.8C445.12 146.771 447.631 146.503 450.1 146C452.792 145.452 455.434 144.682 458 143.7V122.5C458 118.5 457.8 115.9 457.2 114.7C456.401 113.326 455.22 112.215 453.8 111.5C451.847 110.523 449.683 110.042 447.5 110.1H444.9V107.3H494.4V110.1C490.7 110.4 488.1 110.9 486.6 111.7C485.035 112.502 483.824 113.856 483.2 115.5C482.7 116.5 482.5 118.8 482.5 122.5V143.7C475.953 146.615 469.114 148.828 462.1 150.3C454.898 151.804 447.557 152.541 440.2 152.5C430.5 152.5 422.5 151.2 416.1 148.6C409.941 146.071 404.233 142.559 399.2 138.2C394.487 134.134 390.586 129.215 387.7 123.7C384.141 116.492 382.358 108.537 382.5 100.5C382.5 85.2 387.9 72.2 398.6 61.6C409.3 51 423 45.7 439.3 45.7C443.898 45.6874 448.486 46.1228 453 47C456.657 47.8273 460.236 48.9648 463.7 50.4C468.7 52.3 471.6 53.2 472.5 53.2C473.938 53.1834 475.322 52.6511 476.4 51.7C477.6 50.6 478.7 48.7 479.7 45.8H482.5Z" fill="#38B6FF"/>
<path d="M536.5 150.1V147.3H539.9C542.9 147.3 545.2 146.9 546.7 145.9C548.275 145.081 549.513 143.737 550.2 142.1C550.7 141.1 550.9 137.9 550.9 132.7V65.6002C550.9 60.4002 550.6 57.1002 550.1 55.8002C549.347 54.3411 548.159 53.1527 546.7 52.4002C544.614 51.2863 542.261 50.7674 539.9 50.9002H536.5V48.2002H582.2C594.4 48.2002 604.2 49.8002 611.6 53.1002C620.279 56.8389 627.509 63.2964 632.2 71.5002C636.154 78.7574 638.519 86.7722 639.14 95.0131C639.761 103.254 638.622 111.533 635.8 119.3C633.803 124.786 630.783 129.842 626.9 134.2C623.283 138.117 618.978 141.337 614.2 143.7C608.612 146.329 602.69 148.179 596.6 149.2C591.836 149.925 587.017 150.226 582.2 150.1H536.5ZM575.4 53.9002V133.5C575.4 137.7 575.6 140.3 576 141.2C576.392 142.176 577.144 142.963 578.1 143.4C579.894 144.304 581.895 144.718 583.9 144.6C592.3 144.6 598.7 141.7 603.1 136C609.1 128.267 612.1 116.267 612.1 100C612.1 87.0002 610.1 76.5002 606 68.7002C602.7 62.6002 598.5 58.4002 593.4 56.2002C589.8 54.6002 583.8 53.9002 575.4 53.9002Z" fill="#38B6FF"/>
<path d="M686.6 103.6V132.2C686.6 137.7 687 141.2 687.7 142.6C688.402 144.154 689.646 145.399 691.2 146.1C692.867 146.9 696.067 147.3 700.8 147.3V150.1H648.6V147.3C653.3 147.3 656.5 146.9 658.2 146C659.704 145.276 660.933 144.083 661.7 142.6C662.4 141.2 662.7 137.7 662.7 132.2V66.1002C662.7 60.5002 662.4 57.1002 661.7 55.6002C660.89 54.1147 659.629 52.9243 658.1 52.2002C656.4 51.4002 653.2 50.9002 648.6 50.9002V48.2002H696C708.3 48.2002 717.3 49.0002 723 50.7002C728.527 52.3085 733.419 55.5929 737 60.1002C740.608 64.7191 742.515 70.4401 742.4 76.3002C742.49 79.8039 741.811 83.2848 740.412 86.4981C739.013 89.7115 736.926 92.5794 734.3 94.9002C730.9 98.0002 726 100.4 719.8 101.9L744.3 136.4C747.5 140.934 749.8 143.734 751.2 144.8C753.251 146.349 755.732 147.223 758.3 147.3V150.1H726.2L693.3 103.6H686.6ZM686.6 53.6002V98.3002H690.9C697.9 98.3002 703.1 97.7002 706.6 96.4002C710.008 95.0916 712.866 92.6569 714.7 89.5002C716.7 86.1002 717.7 81.8002 717.7 76.4002C717.7 68.7002 715.9 62.9002 712.2 59.2002C708.5 55.5002 702.8 53.6002 694.7 53.6002H686.6Z" fill="#38B6FF"/>
<path d="M816.4 46.6999C832.7 46.0999 845.9 50.8999 856 60.8999C866.1 70.8999 871.2 83.5999 871.2 98.7999C871.2 111.7 867.5 123.1 859.9 132.9C849.9 145.9 835.7 152.5 817.4 152.5C799.1 152.5 784.9 146.2 774.8 133.8C766.9 124 763 112.3 763 98.7999C763 83.6999 768.1 71.0999 778.4 60.9999C788.7 50.8999 801.4 46.0999 816.4 46.6999ZM817.3 51.4999C808 51.4999 800.9 56.2999 796 65.7999C792.1 73.5999 790.1 84.8999 790.1 99.4999C790.1 116.9 793.2 129.8 799.3 138.1C803.5 143.9 809.5 146.8 817.2 146.8C821.784 146.968 826.302 145.672 830.1 143.1C834.5 139.8 838 134.7 840.4 127.7C842.8 120.7 844.1 111.4 844.1 100.1C844.1 86.5999 842.8 76.4999 840.3 69.7999C837.8 63.0999 834.6 58.3999 830.7 55.6999C826.812 52.8737 822.106 51.3985 817.3 51.4999Z" fill="#38B6FF"/>
<path d="M918.3 104V132.2C918.3 137.7 918.7 141.2 919.3 142.6C920.075 144.136 921.343 145.369 922.9 146.1C924.7 146.9 927.8 147.3 932.4 147.3V150.1H880.6V147.3C885.4 147.3 888.5 146.9 890.2 146C891.729 145.276 892.99 144.086 893.8 142.6C894.4 141.2 894.8 137.7 894.8 132.2V66.1002C894.8 60.5002 894.4 57.1002 893.8 55.6002C892.99 54.1147 891.729 52.9243 890.2 52.2002C888.5 51.4002 885.3 50.9002 880.6 50.9002V48.2002H925.1C939.7 48.2002 950.2 50.8002 956.6 56.0002C963 61.2002 966.1 67.7002 966.1 75.5002C966.256 81.729 964.081 87.7917 960 92.5002C955.9 97.2002 950.2 100.4 943 102.1C938.1 103.3 929.9 104 918.3 104ZM918.3 54.0002V98.1002H922.1C928.233 98.1002 932.933 96.3002 936.2 92.7002C939.5 89.0002 941.2 83.4002 941.2 75.8002C941.2 68.2002 939.5 62.7002 936.2 59.2002C932.9 55.7002 928 53.9002 921.4 53.9002L918.3 54.0002Z" fill="#38B6FF"/>
<path d="M1043.1 45.7999L1044 79.7999H1040.9C1039.4 71.2999 1035.9 64.3999 1030.2 59.1999C1024.5 53.9999 1018.3 51.4999 1011.7 51.4999C1006.6 51.4999 1002.5 52.7999 999.6 55.5999C998.207 56.7418 997.083 58.1755 996.305 59.7998C995.528 61.424 995.116 63.1992 995.1 64.9999C995.034 67.1134 995.591 69.1997 996.7 70.9999C998.53 73.787 1000.91 76.1694 1003.7 77.9999C1006 79.6999 1011.5 82.5999 1020 86.7999C1031.9 92.6999 1040 98.1999 1044.1 103.4C1048.17 108.473 1050.36 114.797 1050.3 121.3C1050.3 129.8 1047 137.2 1040.3 143.3C1033.6 149.4 1025.2 152.5 1015 152.5C1011.94 152.53 1008.88 152.194 1005.9 151.5C1002.23 150.619 998.653 149.414 995.2 147.9C993.314 147.022 991.277 146.512 989.2 146.4C987.711 146.464 986.278 146.988 985.1 147.9C983.502 149.051 982.283 150.653 981.6 152.5H978.8V114H981.6C983.8 124.8 988 133 994.3 138.7C1000.6 144.4 1007.4 147.3 1014.6 147.3C1021.8 147.3 1024.7 145.7 1028.1 142.7C1031.5 139.7 1033.1 136.1 1033.1 132C1033.06 129.532 1032.37 127.118 1031.1 125C1029.65 122.473 1027.67 120.29 1025.3 118.6C1022.7 116.5 1018.1 113.9 1011.5 110.6C1002.2 106.1 995.5 102.2 991.5 98.9999C987.66 96.0819 984.46 92.4059 982.1 88.1999C979.891 84.2263 978.753 79.7462 978.8 75.1999C978.742 71.2934 979.515 67.4192 981.066 63.8335C982.618 60.2478 984.913 57.0324 987.8 54.3999C993.8 48.6999 1001.3 45.7999 1010.4 45.7999C1013.64 45.7925 1016.86 46.1957 1020 46.9999C1022.97 47.8389 1025.86 48.9781 1028.6 50.3999C1032 51.9999 1034.3 52.7999 1035.7 52.7999C1036.27 52.8274 1036.84 52.7348 1037.38 52.5282C1037.91 52.3215 1038.4 52.0053 1038.8 51.5999C1039.5 50.7999 1040.2 48.8999 1040.9 45.7999H1043.1Z" fill="#38B6FF"/>
<path d="M299.6 196.1L287.1 168.8V190.5C287.1 192.5 287.3 193.7 287.7 194.2C288.06 194.568 288.5 194.849 288.985 195.022C289.47 195.196 289.988 195.256 290.5 195.2H291.7V196.1H280.4V195.2H281.5C282.046 195.266 282.599 195.19 283.107 194.98C283.615 194.77 284.06 194.432 284.4 194C284.8 193.5 285 192.3 285 190.5V169.3C285.051 168.243 284.881 167.187 284.5 166.2C284.267 165.662 283.838 165.233 283.3 165C282.372 164.667 281.384 164.531 280.4 164.6V163.7H289.6L301.3 189.1L312.9 163.7H322.1V164.6H321C320.44 164.544 319.875 164.624 319.353 164.833C318.831 165.042 318.367 165.374 318 165.8C317.581 166.917 317.41 168.111 317.5 169.3V190.5C317.5 192.5 317.7 193.7 318.2 194.2C318.56 194.568 319 194.849 319.485 195.022C319.97 195.196 320.488 195.256 321 195.2H322.1V196.1H308.3V195.2H309.5C310.045 195.257 310.595 195.177 311.102 194.967C311.608 194.758 312.054 194.425 312.4 194C312.819 192.884 312.99 191.689 312.9 190.5V168.8L300.4 196.1H299.6Z" fill="#FF1616"/>
<path d="M363.7 185.3H351.2L349 190.4C348.531 191.263 348.258 192.219 348.2 193.2C348.204 193.457 348.269 193.709 348.391 193.935C348.513 194.162 348.688 194.355 348.9 194.5C349.815 195.009 350.854 195.252 351.9 195.2V196.1H341.7V195.2C342.637 195.166 343.543 194.853 344.3 194.3C345.475 192.908 346.389 191.316 347 189.6L358.4 162.9H359.3L370.6 189.9C371.5 192.1 372.3 193.5 373.1 194.1C373.963 194.836 375.067 195.228 376.2 195.2V196.1H363.4V195.2C364.304 195.229 365.2 195.023 366 194.6C366.21 194.43 366.38 194.217 366.501 193.975C366.622 193.734 366.69 193.47 366.7 193.2C366.539 192.055 366.202 190.942 365.7 189.9L363.7 185.3ZM363.1 183.5L357.6 170.4L351.9 183.5H363.1Z" fill="#FF1616"/>
<path d="M428 196.1H419.3L408.4 180.9H405V190.4C405 192.4 405.2 193.7 405.6 194.2C405.961 194.568 406.4 194.849 406.885 195.022C407.37 195.195 407.888 195.256 408.4 195.2H409.6V196.1H395.7V195.2H396.9C397.47 195.262 398.046 195.175 398.573 194.947C399.099 194.719 399.556 194.358 399.9 193.9C400.319 192.783 400.49 191.589 400.4 190.4V169.4C400.4 167.4 400.2 166.1 399.7 165.6C399.34 165.232 398.9 164.951 398.415 164.777C397.93 164.604 397.412 164.543 396.9 164.6H395.7V163.7H407.5C410.086 163.593 412.676 163.828 415.2 164.4C416.805 164.925 418.227 165.896 419.3 167.2C420.458 168.525 421.066 170.242 421 172C421.043 173.91 420.365 175.767 419.1 177.2C417.8 178.7 415.8 179.7 413 180.3L419.7 189.6C420.776 191.253 422.129 192.708 423.7 193.9C425.015 194.657 426.486 195.102 428 195.2V196.1ZM405 179.4H406.3C409.4 179.4 411.7 178.7 413.3 177.4C414.382 176.49 415.153 175.265 415.507 173.896C415.86 172.527 415.778 171.082 415.272 169.762C414.766 168.442 413.861 167.313 412.683 166.531C411.505 165.749 410.113 165.353 408.7 165.4C407.457 165.415 406.218 165.549 405 165.8V179.4Z" fill="#FF1616"/>
<path d="M460.4 178.1L472.3 190C473.784 191.588 475.504 192.937 477.4 194C478.672 194.672 480.067 195.08 481.5 195.2V196.1H466.1V195.2C466.792 195.268 467.488 195.129 468.1 194.8C468.279 194.676 468.426 194.512 468.53 194.321C468.634 194.13 468.692 193.918 468.7 193.7C468.691 193.358 468.623 193.02 468.5 192.7C468.049 192.092 467.547 191.524 467 191L455.8 179.9V190.4C455.74 191.476 455.841 192.554 456.1 193.6C456.319 194.056 456.667 194.439 457.1 194.7C457.79 195.02 458.54 195.19 459.3 195.2H460.4V196.1H446.6V195.2H447.7C448.234 195.238 448.77 195.159 449.271 194.969C449.772 194.779 450.225 194.482 450.6 194.1C451.114 192.939 451.321 191.665 451.2 190.4V169.4C451.252 168.292 451.151 167.181 450.9 166.1C450.648 165.694 450.306 165.352 449.9 165.1C449.226 164.736 448.465 164.563 447.7 164.6H446.6V163.7H460.4V164.6H459.3C458.535 164.563 457.774 164.736 457.1 165.1C456.861 165.223 456.65 165.392 456.478 165.599C456.306 165.805 456.178 166.043 456.1 166.3C455.839 167.312 455.738 168.358 455.8 169.4V179.3L459.1 176.3C463.8 172 466.7 169.1 467.7 167.6C468.059 167.103 468.267 166.513 468.3 165.9C468.254 165.548 468.075 165.226 467.8 165C467.3 164.667 466.696 164.525 466.1 164.6H465.4V163.7H477.3V164.6L475.4 164.8C474.662 165.089 473.958 165.458 473.3 165.9C472.18 166.581 471.14 167.386 470.2 168.3C469.8 168.6 468.2 170.2 465.3 173.2L460.4 178.1Z" fill="#FF1616"/>
<path d="M509.5 165.4V178.3H516.7C518.5 178.3 519.8 178 520.4 177.4C521.342 176.363 521.844 175.001 521.8 173.6H522.7V184.8H521.8C521.684 183.776 521.449 182.769 521.1 181.8C520.793 181.221 520.3 180.763 519.7 180.5C518.742 180.138 517.723 179.968 516.7 180H509.5V190.7C509.464 191.572 509.531 192.444 509.7 193.3C509.878 193.611 510.116 193.883 510.4 194.1C510.976 194.307 511.592 194.376 512.2 194.3H517.7C519.04 194.347 520.381 194.246 521.7 194C522.606 193.695 523.428 193.181 524.1 192.5C525.331 191.147 526.374 189.633 527.2 188H528.1L525.3 196.1H500.3V195.2H501.5C502.228 195.188 502.945 195.018 503.6 194.7C504.09 194.434 504.477 194.012 504.7 193.5C504.961 192.489 505.062 191.443 505 190.4V169.3C505 167.3 504.7 166 504.3 165.5C503.923 165.162 503.478 164.906 502.996 164.751C502.513 164.596 502.004 164.545 501.5 164.6H500.3V163.7H525.3L525.7 170.8H524.7C524.548 169.577 524.175 168.391 523.6 167.3C523.196 166.603 522.559 166.071 521.8 165.8C520.693 165.496 519.547 165.362 518.4 165.4H509.5Z" fill="#FF1616"/>
<path d="M575.8 163.7L576.1 171.3H575.2C575.111 170.304 574.876 169.327 574.5 168.4C574.078 167.527 573.373 166.822 572.5 166.4C571.517 165.879 570.41 165.637 569.3 165.7H564.7V190.5C564.7 192.5 564.9 193.7 565.4 194.2C565.76 194.568 566.2 194.849 566.685 195.022C567.17 195.196 567.688 195.256 568.2 195.2H569.3V196.1H555.5V195.2H556.7C557.244 195.248 557.792 195.164 558.297 194.955C558.801 194.746 559.249 194.418 559.6 194C560.019 192.884 560.19 191.689 560.1 190.5V165.7H556.2C555.125 165.653 554.048 165.753 553 166C552.125 166.359 551.388 166.99 550.9 167.8C550.21 168.839 549.828 170.053 549.8 171.3H548.9L549.3 163.7H575.8Z" fill="#FF1616"/>
<path d="M610.6 195.2V196.1H596.7V195.2H597.9C598.434 195.238 598.97 195.159 599.471 194.969C599.972 194.779 600.425 194.482 600.8 194.1C601.314 192.939 601.521 191.665 601.4 190.4V169.4C601.46 168.325 601.359 167.246 601.1 166.2C600.881 165.744 600.534 165.362 600.1 165.1C599.426 164.736 598.665 164.563 597.9 164.6H596.7V163.7H610.6V164.6H609.5C608.964 164.54 608.422 164.609 607.917 164.8C607.413 164.992 606.962 165.3 606.6 165.7C606.2 166.2 606 167.5 606 169.4V190.4C605.94 191.476 606.041 192.554 606.3 193.6C606.519 194.056 606.867 194.439 607.3 194.7C607.99 195.02 608.74 195.19 609.5 195.2H610.6Z" fill="#FF1616"/>
<path d="M629.4 163.7H638.2L658 188V169.3C658 167.3 657.8 166.1 657.3 165.6C656.944 165.226 656.505 164.941 656.019 164.767C655.533 164.593 655.012 164.536 654.5 164.6H653.4V163.7H664.7V164.6H663.6C663.054 164.534 662.501 164.61 661.993 164.82C661.485 165.03 661.039 165.368 660.7 165.8C660.3 166.3 660.1 167.5 660.1 169.3V196.6H659.3L637.9 170.5V190.5C637.9 192.5 638.1 193.7 638.5 194.2C638.869 194.557 639.309 194.83 639.792 195.003C640.275 195.175 640.789 195.243 641.3 195.2H642.5V196.1H631.2V195.2H632.3C632.846 195.266 633.399 195.19 633.907 194.98C634.415 194.77 634.86 194.432 635.2 194C635.6 193.5 635.8 192.3 635.8 190.5V167.9C635.154 167.114 634.415 166.409 633.6 165.8C632.962 165.35 632.251 165.012 631.5 164.8C630.817 164.614 630.106 164.546 629.4 164.6V163.7Z" fill="#FF1616"/>
<path d="M713.7 162.9L714.5 173.2H713.7C713.05 171.043 711.922 169.061 710.4 167.4C709.407 166.447 708.229 165.707 706.939 165.225C705.65 164.744 704.275 164.531 702.9 164.6C701.041 164.52 699.194 164.93 697.544 165.791C695.894 166.651 694.499 167.93 693.5 169.5C691.653 172.466 690.715 175.907 690.8 179.4C690.758 182.3 691.373 185.172 692.6 187.8C693.552 190.107 695.194 192.063 697.3 193.4C699.086 194.564 701.169 195.189 703.3 195.2C704.479 195.216 705.655 195.081 706.8 194.8C707.918 194.461 708.992 193.991 710 193.4V184.1C710.107 183.017 709.97 181.924 709.6 180.9C709.378 180.389 708.99 179.966 708.5 179.7C707.607 179.366 706.651 179.229 705.7 179.3V178.4H718.3V179.3H717.7C717.187 179.233 716.665 179.321 716.201 179.553C715.738 179.784 715.355 180.149 715.1 180.6C714.69 181.719 714.52 182.911 714.6 184.1V194C712.894 194.946 711.081 195.684 709.2 196.2C707.265 196.647 705.286 196.882 703.3 196.9C697 196.9 692.2 194.8 689 190.8C686.557 187.891 685.243 184.199 685.3 180.4C685.298 177.533 686.02 174.713 687.4 172.2C688.89 169.202 691.217 166.701 694.1 165C696.656 163.546 699.561 162.82 702.5 162.9C703.574 162.891 704.646 162.992 705.7 163.2C707.101 163.518 708.472 163.952 709.8 164.5L711.6 165C711.908 164.975 712.195 164.831 712.4 164.6C712.638 164.063 712.774 163.487 712.8 162.9H713.7Z" fill="#FF1616"/>
<path d="M794.9 163.7L795.8 173.9H794.9C794.298 171.744 793.203 169.758 791.7 168.1C790.484 167.055 789.062 166.275 787.527 165.811C785.992 165.348 784.376 165.211 782.785 165.408C781.193 165.606 779.661 166.135 778.286 166.96C776.91 167.785 775.723 168.889 774.8 170.2C772.953 173.166 772.014 176.607 772.1 180.1C772.066 183.031 772.681 185.934 773.9 188.6C774.908 190.872 776.537 192.813 778.6 194.2C780.386 195.364 782.469 195.989 784.6 196C785.751 195.988 786.894 195.82 788 195.5C789.147 195.198 790.255 194.762 791.3 194.2V184.8C791.344 183.719 791.209 182.637 790.9 181.6C790.634 181.086 790.214 180.666 789.7 180.4C788.823 180.151 787.91 180.049 787 180.1V179.1H799.6V180.1H799C798.499 180.048 797.992 180.131 797.535 180.343C797.077 180.554 796.685 180.885 796.4 181.3C795.998 182.421 795.828 183.612 795.9 184.8V194.7C794.194 195.646 792.381 196.384 790.5 196.9C788.54 197.402 786.522 197.638 784.5 197.6C778.3 197.6 773.5 195.6 770.3 191.6C767.849 188.656 766.537 184.93 766.6 181.1C766.659 178.002 767.496 174.968 769.034 172.277C770.572 169.586 772.76 167.324 775.4 165.7C777.978 164.313 780.873 163.624 783.8 163.7C784.874 163.691 785.946 163.792 787 164C788.4 164.274 789.773 164.675 791.1 165.2C791.661 165.483 792.273 165.653 792.9 165.7C793.056 165.709 793.213 165.677 793.353 165.606C793.493 165.536 793.613 165.431 793.7 165.3C793.943 164.8 794.079 164.255 794.1 163.7H794.9Z" fill="#FF1616"/>
<path d="M851.4 196.8H842.7L831.7 181.7H828.3V191.1C828.3 193.1 828.5 194.4 829 194.9C829.34 195.272 829.759 195.564 830.226 195.754C830.693 195.944 831.197 196.028 831.7 196H833V196.8H819.1V196H820.3C820.865 196.054 821.435 195.953 821.946 195.706C822.458 195.459 822.891 195.076 823.2 194.6C823.6 194.1 823.7 193 823.7 191.1V170.1C823.7 168.1 823.5 166.8 823.1 166.3C822.732 165.943 822.291 165.67 821.808 165.497C821.325 165.325 820.811 165.257 820.3 165.3H819.1V164.4H830.9C833.458 164.314 836.016 164.583 838.5 165.2C840.127 165.686 841.583 166.622 842.7 167.9C843.816 169.287 844.417 171.019 844.4 172.8C844.421 174.695 843.704 176.524 842.4 177.9C840.797 179.585 838.692 180.707 836.4 181.1L843.1 190.4C844.142 192.019 845.462 193.441 847 194.6C848.343 195.39 849.847 195.869 851.4 196V196.8ZM828.3 180.2H829.7C832.193 180.347 834.661 179.642 836.7 178.2C837.423 177.562 838.002 176.777 838.399 175.897C838.795 175.018 839 174.064 839 173.1C839.05 172.18 838.907 171.26 838.579 170.399C838.252 169.538 837.748 168.754 837.1 168.1C835.751 166.83 833.953 166.146 832.1 166.2C830.821 166.256 829.55 166.423 828.3 166.7V180.2Z" fill="#FF1616"/>
<path d="M886.8 163.7C888.866 163.694 890.911 164.117 892.805 164.943C894.698 165.77 896.399 166.981 897.8 168.5C899.323 170.076 900.514 171.94 901.305 173.984C902.095 176.028 902.467 178.21 902.4 180.4C902.474 182.66 902.096 184.911 901.289 187.023C900.482 189.135 899.262 191.065 897.7 192.7C896.258 194.235 894.519 195.459 892.589 196.3C890.658 197.14 888.577 197.578 886.471 197.588C884.366 197.597 882.281 197.177 880.343 196.354C878.405 195.531 876.655 194.322 875.2 192.8C872.1 189.7 870.6 185.5 870.6 180.5C870.538 178.144 870.979 175.802 871.893 173.629C872.807 171.457 874.173 169.504 875.9 167.9C878.846 165.132 882.758 163.625 886.8 163.7ZM886.4 165.4C885.065 165.353 883.737 165.618 882.522 166.173C881.307 166.729 880.238 167.559 879.4 168.6C877.2 171.3 876.1 175.2 876.1 180.4C876.1 185.6 877.2 189.8 879.5 192.6C880.301 193.663 881.346 194.518 882.547 195.092C883.748 195.666 885.069 195.944 886.4 195.9C887.845 195.931 889.277 195.622 890.58 194.996C891.883 194.371 893.02 193.447 893.9 192.3C895.9 190 896.9 186.2 896.9 181.1C896.9 176 895.8 171.4 893.6 168.7C892.752 167.613 891.655 166.746 890.402 166.172C889.149 165.597 887.777 165.333 886.4 165.4Z" fill="#FF1616"/>
<path d="M945.7 165.3V164.4H957.1V165.3H955.9C955.317 165.277 954.738 165.414 954.227 165.696C953.716 165.978 953.291 166.394 953 166.9C952.6 167.4 952.5 168.5 952.5 170.3V183.5C952.567 186.07 952.23 188.635 951.5 191.1C950.78 193.013 949.442 194.631 947.7 195.7C945.381 197.09 942.699 197.752 940 197.6C936.4 197.6 933.8 197 931.9 195.8C930.125 194.566 928.765 192.822 928 190.8C927.5 189.4 927.3 186.7 927.3 182.8V170.1C927.3 168.2 927 166.8 926.4 166.2C926.057 165.872 925.647 165.621 925.198 165.466C924.75 165.311 924.273 165.254 923.8 165.3H922.5V164.4H936.6V165.3H935.3C934.745 165.245 934.186 165.336 933.677 165.564C933.169 165.792 932.728 166.149 932.4 166.6C932 167.1 931.8 168.3 931.8 170.1V184.3C931.852 185.74 931.986 187.175 932.2 188.6C932.311 189.94 932.721 191.239 933.4 192.4C934.109 193.366 935.033 194.154 936.1 194.7C937.403 195.346 938.847 195.656 940.3 195.6C942.287 195.612 944.245 195.131 946 194.2C947.494 193.401 948.688 192.137 949.4 190.6C950 189.2 950.3 186.7 950.3 183.3V170.1C950.3 168.1 950.1 166.9 949.6 166.3C949.255 165.94 948.832 165.663 948.365 165.49C947.897 165.317 947.396 165.252 946.9 165.3H945.7Z" fill="#FF1616"/>
<path d="M985.7 181.7V191.1C985.7 193.1 985.9 194.4 986.4 194.9C986.74 195.272 987.159 195.564 987.626 195.754C988.093 195.944 988.597 196.028 989.1 196H990.4V196.8H976.5V196H977.7C978.264 196.044 978.829 195.937 979.339 195.691C979.848 195.445 980.283 195.069 980.6 194.6C981.032 193.487 981.203 192.289 981.1 191.1V170.1C981.1 168.1 980.9 166.8 980.5 166.3C980.128 165.949 979.687 165.678 979.205 165.506C978.723 165.334 978.21 165.264 977.7 165.3H976.5V164.4H988.4C990.701 164.32 992.999 164.624 995.2 165.3C996.877 165.895 998.362 166.932 999.5 168.3C1000.62 169.76 1001.22 171.557 1001.2 173.4C1001.24 174.589 1001.03 175.773 1000.58 176.876C1000.13 177.978 999.457 178.974 998.6 179.8C996.8 181.5 994.3 182.3 991.1 182.3H988.6L985.7 181.7ZM985.7 180.3L987.9 180.7H989.6C990.418 180.695 991.226 180.513 991.968 180.168C992.71 179.823 993.369 179.322 993.9 178.7C994.513 178.045 994.988 177.274 995.297 176.432C995.606 175.591 995.743 174.695 995.7 173.8C995.695 172.427 995.423 171.069 994.9 169.8C994.37 168.66 993.496 167.716 992.4 167.1C991.305 166.477 990.06 166.165 988.8 166.2C987.752 166.258 986.713 166.425 985.7 166.7V180.3Z" fill="#FF1616"/>
<path d="M102.4 47.6C115.544 47.6 126.2 36.9444 126.2 23.8C126.2 10.6556 115.544 0 102.4 0C89.2557 0 78.6001 10.6556 78.6001 23.8C78.6001 36.9444 89.2557 47.6 102.4 47.6Z" fill="#FF1616"/>
<path d="M23.3 94.3002C36.1682 94.3002 46.6 83.8684 46.6 71.0002C46.6 58.132 36.1682 47.7002 23.3 47.7002C10.4318 47.7002 0 58.132 0 71.0002C0 83.8684 10.4318 94.3002 23.3 94.3002Z" fill="#FF1616"/>
<path d="M23.3 172.9C36.1682 172.9 46.6 162.468 46.6 149.6C46.6 136.732 36.1682 126.3 23.3 126.3C10.4318 126.3 0 136.732 0 149.6C0 162.468 10.4318 172.9 23.3 172.9Z" fill="#FF1616"/>
<path d="M102.4 211.7C115.268 211.7 125.7 201.268 125.7 188.4C125.7 175.532 115.268 165.1 102.4 165.1C89.5319 165.1 79.1001 175.532 79.1001 188.4C79.1001 201.268 89.5319 211.7 102.4 211.7Z" fill="#FF1616"/>
<path d="M174.3 172.9C187.168 172.9 197.6 162.468 197.6 149.6C197.6 136.732 187.168 126.3 174.3 126.3C161.432 126.3 151 136.732 151 149.6C151 162.468 161.432 172.9 174.3 172.9Z" fill="#FF1616"/>
<path d="M174.3 94.3002C187.168 94.3002 197.6 83.8684 197.6 71.0002C197.6 58.132 187.168 47.7002 174.3 47.7002C161.432 47.7002 151 58.132 151 71.0002C151 83.8684 161.432 94.3002 174.3 94.3002Z" fill="#FF1616"/>
<path d="M85.7999 96.8C92.9244 96.8 98.6999 91.0245 98.6999 83.9C98.6999 76.7755 92.9244 71 85.7999 71C78.6754 71 72.8999 76.7755 72.8999 83.9C72.8999 91.0245 78.6754 96.8 85.7999 96.8Z" fill="#38B6FF"/>
<path d="M72.9 122.6C80.0245 122.6 85.8 116.824 85.8 109.7C85.8 102.575 80.0245 96.7998 72.9 96.7998C65.7755 96.7998 60 102.575 60 109.7C60 116.824 65.7755 122.6 72.9 122.6Z" fill="#38B6FF"/>
<path d="M85.7999 147.8C92.9244 147.8 98.6999 142.024 98.6999 134.9C98.6999 127.776 92.9244 122 85.7999 122C78.6754 122 72.8999 127.776 72.8999 134.9C72.8999 142.024 78.6754 147.8 85.7999 147.8Z" fill="#38B6FF"/>
<path d="M118.8 147.8C125.924 147.8 131.7 142.024 131.7 134.9C131.7 127.776 125.924 122 118.8 122C111.675 122 105.9 127.776 105.9 134.9C105.9 142.024 111.675 147.8 118.8 147.8Z" fill="#38B6FF"/>
<path d="M131.7 122.6C138.825 122.6 144.6 116.824 144.6 109.7C144.6 102.575 138.825 96.7998 131.7 96.7998C124.576 96.7998 118.8 102.575 118.8 109.7C118.8 116.824 124.576 122.6 131.7 122.6Z" fill="#38B6FF"/>
<path d="M118.8 96.8C125.924 96.8 131.7 91.0245 131.7 83.9C131.7 76.7755 125.924 71 118.8 71C111.675 71 105.9 76.7755 105.9 83.9C105.9 91.0245 111.675 96.8 118.8 96.8Z" fill="#38B6FF"/>
</g>
<defs>
<clipPath id="clip0_502_37">
<rect width="1050.3" height="211.7" fill="white"/>
</clipPath>
</defs>
</svg>
